<?xml version="1.0" encoding="utf-8"?>
<!-- Generator: Adobe Illustrator 23.0.1, SVG Export Plug-In . SVG Version: 6.00 Build 0)  -->
<svg version="1.1" id="Ebene_1" xmlns="http://www.w3.org/2000/svg" xmlns:xlink="http://www.w3.org/1999/xlink" x="0px" y="0px"
	 viewBox="0 0 2170 743" enable-background="new 0 0 2170 743" xml:space="preserve">
<g>
	<g>
		<path fill="#FFFFFF" d="M2167,451.6c0-96.3-78.1-174.5-174.5-174.5h-698c-96.4,0-174.5,78.1-174.5,174.5l0,0v116.3
			c0,96.4,78.1,174.5,174.5,174.5h698c32.1,0,58.2-26,58.2-58.2c0-32.1-26-58.2-58.2-58.2l0,0h-698c-32.1,0-58.2-26-58.2-58.2V451.7
			l0,0c0-32.1,26-58.2,58.2-58.2h698c32.1,0,58.2,26,58.2,58.2c0,32.1,26.1,58.2,58.2,58.2C2141,509.8,2167,483.8,2167,451.6
			 M1992.5,509.8c0-32.1-26-58.2-58.2-58.2c-32.1,0-58.2,26.1-58.2,58.2s26,58.2,58.2,58.2S1992.5,542,1992.5,509.8"/>
	</g>
	<g>
		<path fill="#ADD034" d="M1047,568V451.6c0-96.4-78.1-174.5-174.5-174.5h-698l0,0c-32.1,0-58.2-26-58.2-58.2V102.7
			c0-32.1-26-58.2-58.2-58.2C26,44.5,0,70.5,0,102.7V219c0,96.4,78.1,174.5,174.5,174.5l0,0h698c32.1,0,58.2,26,58.2,58.2V568
			c0,32.1-26,58.2-58.2,58.2H58.2C26,626.2,0,652.2,0,684.3s26,58.2,58.2,58.2h814.3C968.9,742.5,1047,664.3,1047,568 M116.3,451.6
			c-32.1,0-58.2,26-58.2,58.2c0,32.1,26,58.2,58.2,58.2c32.1,0,58.2-26,58.2-58.2C174.5,477.7,148.5,451.6,116.3,451.6"/>
	</g>
</g>
<g>
	<g>
		<g>
			<g>
				<path fill="#FFFFFF" d="M2145.5,137.2v29.7c0,5.6,0.3,10.5,0.2,10.5h-0.1c-0.1,0-1.6-2.1-5.2-6.9l-24.9-33.2h-2.3v44.1h2.4
					v-29.9c0-5.7-0.2-10.5-0.1-10.5h0.1c0.1,0,1.2,1.8,5,6.9l25.1,33.5h2.3v-44.1H2145.5L2145.5,137.2z M2100.7,173.3
					c0,0.1-0.1,1.9-0.1,8.2h2.3v-21.8h-16.8v2.1h14.5v8.2c-1.9,4-9,9.9-18.5,9.9c-11.5,0-20.6-8.5-20.6-20.6
					c0-12.3,9.1-20.6,20.6-20.6c7.6,0,14.2,3.7,17.8,9.8l2.5-0.6c-3.8-6.7-10.8-11.2-20.2-11.4c-12.8,0-23.1,9.6-23.1,22.9
					s10.3,22.9,23.1,22.9C2092.9,182.2,2098.8,175.8,2100.7,173.3L2100.7,173.3L2100.7,173.3z M2050,137.2h-2.4v44.1h2.4V137.2z
					 M2037.6,148c-1.2-7.2-7.3-11.6-15.2-11.6c-8.6,0-14.9,4.5-14.9,11.4c0,7.6,8.2,9.5,13.2,10.9c6.3,1.7,15.2,3.2,15.2,11.2
					c0,5.9-5.2,10.2-13.2,10.2c-8.5,0-13.3-5.2-13.7-11.2l-2.3,0.6c0.6,7.1,6.3,12.9,16,12.9c9.5,0,15.7-5.3,15.7-12.4
					c0-9.1-9.2-11.3-15.2-12.9c-6.2-1.6-13.2-3.4-13.2-9.1c0-5.8,5.3-9.1,12.5-9.1c6.7,0,11.9,3.8,12.9,10L2037.6,148z M1975.3,179
					v-20.4h21.1v-2.3h-21.1v-16.8h26v-2.3h-28.4v44.1h28.8V179L1975.3,179L1975.3,179L1975.3,179z M1925.1,179v-39.4h16
					c11.3,0,20.6,7.8,20.6,20c0,12.1-9.2,19.5-20,19.5H1925.1L1925.1,179z M1922.7,137.2v44.1h18.9c12.3,0,22.5-8.9,22.5-21.8
					c0-13.2-10.3-22.3-23-22.3L1922.7,137.2L1922.7,137.2z M1891.5,137.2v29.7c0,5.6,0.3,10.5,0.2,10.5h-0.1c-0.1,0-1.6-2.1-5.2-6.9
					l-25-33.2h-2.3v44.1h2.4v-29.9c0-5.7-0.2-10.5-0.1-10.5h0.1c0.1,0,1.2,1.8,5,6.9l25.1,33.5h2.3v-44.1H1891.5L1891.5,137.2z
					 M1806.5,159.3c0-12.4,9.1-20.6,20.6-20.6c11.4,0,20.7,8.3,20.7,20.6c0,12.2-9.2,20.6-20.7,20.6
					C1815.6,179.9,1806.5,171.5,1806.5,159.3 M1804.1,159.3c0,13.3,10.3,22.9,23.1,22.9s23.2-9.6,23.2-22.9
					c0-13.3-10.4-22.9-23.2-22.9C1814.4,136.4,1804.1,146,1804.1,159.3 M1794.9,137.2h-2.4v44.1h2.4V137.2z M1750.7,137.2v2.3h15.6
					v41.8h2.5v-41.8h15.6v-2.3H1750.7z M1742.4,137.2h-2.4v44.1h2.4V137.2z M1701.7,179.2v-20.9h14.1c6.5,0,12,4.4,12,10.4
					c0,6.5-5.1,10.5-11.5,10.5H1701.7L1701.7,179.2z M1701.7,156.2v-16.7h12.5c6.4,0,10.5,3.2,10.5,8.3c0,4.5-4.1,8.4-10.5,8.4
					H1701.7z M1699.3,137.2v44.1h17c8.5,0,14.1-5,14.1-12.9c0-7.2-7.1-11.3-11.4-11.5v-0.1c3.9-0.6,8.3-4.6,8.3-9.2
					c0-6.3-5-10.5-12.5-10.5L1699.3,137.2L1699.3,137.2z M1686.5,137.2h-2.4v44.1h2.4V137.2z M1668.7,137.2V157h-28.2v-19.7h-2.4
					v44.1h2.4v-22h28.2v22h2.5v-44.1H1668.7L1668.7,137.2z M1610.7,159.9c0.1,0,1.3,1.9,2.8,3.8l13.8,17.6h3.1l-18.1-23.1l16.5-21.1
					h-3.1l-12,15.4c-0.7,1-2.9,4.1-3,4.1h-0.1c-0.1,0-2.2-3.2-2.9-4.1l-12-15.4h-3.1l16.5,21.1l-18.1,23.1h3.1l13.8-17.6
					C1609.4,161.9,1610.6,159.9,1610.7,159.9L1610.7,159.9L1610.7,159.9z M1559.7,179v-20.4h21.1v-2.3h-21.1v-16.8h26v-2.3h-28.4
					v44.1h28.8V179L1559.7,179L1559.7,179z M1522.4,165.4c0,8.9-3,14.6-13.8,14.6c-7.6,0-13.2-4.2-13.2-10.5c0-6.9,5.9-9.9,13.2-9.9
					h13.8V165.4z M1533.2,157.3h-24.6c-7.9,0-12-4-12-9c0-3.5,2.2-9.8,11.3-9.8c7.2,0,11.4,3.8,12.9,11.2l2.3-0.6
					c-1.4-8.5-7.6-12.7-15.2-12.7c-10.7,0-13.8,7-13.8,12c0,6.3,4.9,9.4,8.9,10v0.1c-5.3,0.6-10.1,4.2-10.1,11
					c0,7.7,6.4,12.9,15.7,12.9c11.8,0,16.2-6.2,16.2-16.8v-5.9h8.5L1533.2,157.3L1533.2,157.3z M1438.5,137.2v2.3h15.6v41.8h2.5
					v-41.8h15.6v-2.3H1438.5z M1434.5,147.8c-4-7-11.5-11.4-20.2-11.4c-12.8,0-23.1,9.6-23.1,22.9c0,13.3,10.3,22.9,23.1,22.9
					c9.3,0,17.1-4.9,20.9-12.7l-2.4-0.7c-3.4,6.7-10.4,11-18.5,11c-11.5,0-20.6-8.4-20.6-20.5c0-12.4,9.1-20.6,20.6-20.6
					c7.6,0,14.2,3.7,17.8,9.8L1434.5,147.8z M1380.7,137.2V164c0,10.5-5.1,16-15.1,16c-10,0-15.2-5.5-15.2-16v-26.7h-2.4v26.4
					c0,12.1,6,18.6,17.6,18.6c11.5,0,17.6-6.5,17.6-18.6v-26.4H1380.7z M1300.8,179v-39.4h16c11.3,0,20.6,7.8,20.6,20
					c0,12.1-9.2,19.5-20,19.5H1300.8L1300.8,179z M1298.4,137.2v44.1h18.9c12.3,0,22.5-8.9,22.5-21.8c0-13.2-10.3-22.3-23-22.3
					L1298.4,137.2L1298.4,137.2z M1245.8,159.3c0-12.4,9.1-20.6,20.6-20.6c11.4,0,20.7,8.3,20.7,20.6c0,12.2-9.2,20.6-20.7,20.6
					C1254.9,179.9,1245.8,171.5,1245.8,159.3 M1243.3,159.3c0,13.3,10.3,22.9,23.1,22.9s23.2-9.6,23.2-22.9
					c0-13.3-10.4-22.9-23.2-22.9C1253.6,136.4,1243.3,146,1243.3,159.3 M1211.2,161.7v-22.1h9.5c8.4,0,13.6,3.8,13.6,11
					c0,6.7-4.8,11.1-13.6,11.1L1211.2,161.7L1211.2,161.7z M1238.3,181.4l-11.4-18.2c6.4-1.6,10-6.1,10-12.5
					c0-8.3-6.1-13.4-16.1-13.4h-12v44.1h2.4v-17.5h9.5c1.3,0,2.5-0.1,3.6-0.3l11,17.8L1238.3,181.4L1238.3,181.4z M1174.7,162.1
					v-22.5h9.5c8.4,0,13.6,3.9,13.6,11.2c0,6.9-4.8,11.3-13.6,11.3H1174.7z M1172.2,137.2v44.1h2.4v-17h9.5
					c10.1,0,16.1-5.1,16.1-13.6c0-8.5-6.1-13.6-16.1-13.6L1172.2,137.2L1172.2,137.2z"/>
			</g>
		</g>
	</g>
	<rect x="1288" y="1.9" fill="#ADD034" width="7.8" height="96.2"/>
	<g>
		<g>
			<g>
				<path fill="#ADD034" d="M1263,49.9c0,26.5-18.6,42.5-41.6,42.5c-23.2,0-41.6-16.1-41.6-42.5c0-26.3,18.4-42.3,41.6-42.3
					C1244.4,7.6,1263,23.5,1263,49.9 M1270.9,49.9c0-30.1-22-49.9-49.6-49.9c-17.8,0-33,8.2-41.8,21.9v-20h-7.8v47.8l0,0
					c0,0,0,0.1,0,0.1c0,30.1,21.8,49.9,49.6,49.9C1248.9,99.7,1270.9,80,1270.9,49.9"/>
			</g>
		</g>
		<g>
			<g>
				<path fill="#ADD034" d="M1407.3,98.1V49.3H1370v7.4h30V73c-4.1,8-18,19.4-37.5,19.4c-23.4,0-41.6-16.2-41.6-42.6
					c0-26.1,17.4-42.2,41.6-42.2c23.1,0,32.8,14.6,35.7,20.5l7.7-2.2c-6-13.9-21.3-25.8-43.4-25.8c-28,0-49.6,19.2-49.6,49.9
					c0,30.2,21.8,49.8,49.2,49.8c21.3,0,33.5-11.8,38.1-17.6h0.1c0,1.3-0.1,3.4-0.1,15.9L1407.3,98.1L1407.3,98.1z"/>
			</g>
		</g>
		<g>
			<g>
				<path fill="#FFFFFF" d="M1520.9,49.9c0-30.1-22-49.9-49.6-49.9c-27.8,0-49.6,19.8-49.6,49.9s21.8,49.9,49.6,49.9
					c18.6,0,34.4-9,42.8-24l-6.4-4.2c-7,13.3-20.6,20.9-36.4,20.9c-23.2,0-41.6-16.1-41.6-42.5c0-26.3,18.4-42.3,41.6-42.3
					c22.9,0,41.3,15.7,41.6,41.7h-29.8v7.4h29.2h7.9h0v-0.3C1520.6,54.2,1520.9,52.1,1520.9,49.9"/>
			</g>
		</g>
		<g>
			<g>
				<path fill="#FFFFFF" d="M1715.8,49.9c0-30.1-22-49.9-49.6-49.9c-27.8,0-49.6,19.8-49.6,49.9s21.8,49.9,49.6,49.9
					c18.6,0,34.4-9,42.8-24l-6.4-4.2c-7,13.3-20.6,20.9-36.4,20.9c-23.2,0-41.6-16.1-41.6-42.5c0-26.3,18.4-42.3,41.6-42.3
					c22.9,0,41.3,15.7,41.6,41.7H1678v7.4h29.2h7.9h0v-0.3C1715.4,54.2,1715.8,52.1,1715.8,49.9"/>
			</g>
		</g>
		<g>
			<g>
				<path fill="#FFFFFF" d="M1573.1,98.1l39.3-96.2h-8.5l-21.3,52.5c-8.3,20.1-13.6,34.2-13.8,34.5h-0.3
					c-0.1-0.3-5.5-14.7-13.9-35.2l-21.2-51.8h-8.7l39.3,96.2H1573.1L1573.1,98.1z"/>
			</g>
		</g>
		<g>
			<g>
				<path fill="#FFFFFF" d="M1800.9,98.1h8V1.9h-7.8v60.9c0,11.4,0.3,22.3,0.3,22.4h-0.1l-60.6-83.3h-8v96.2h7.8V37
					c0-11.8-0.4-22.7-0.4-22.8h0.3L1800.9,98.1z"/>
			</g>
		</g>
	</g>
	<polygon fill="#FFFFFF" points="1825.5,1.9 1825.5,9.3 1859.6,9.3 1859.6,98.1 1867.5,98.1 1867.5,9.3 1901.6,9.3 1901.6,1.9 	"/>
</g>
</svg>
