<svg xmlns="http://www.w3.org/2000/svg" xmlns:xlink="http://www.w3.org/1999/xlink" width="2170" zoomAndPan="magnify" viewBox="0 0 1627.5 557.249982" height="743" preserveAspectRatio="xMidYMid meet" version="1.0"><defs><clipPath id="e0c0c44646"><path d="M 97 55.648438 L 151 55.648438 L 151 109 L 97 109 Z M 97 55.648438 " clip-rule="nonzero"/></clipPath><clipPath id="bd22bf8b85"><path d="M 173 55.648438 L 225 55.648438 L 225 110 L 173 110 Z M 173 55.648438 " clip-rule="nonzero"/></clipPath><clipPath id="f618ea3c83"><path d="M 232 55.648438 L 286 55.648438 L 286 110 L 232 110 Z M 232 55.648438 " clip-rule="nonzero"/></clipPath><clipPath id="b291e8d9a9"><path d="M 336 55.648438 L 391 55.648438 L 391 110 L 336 110 Z M 336 55.648438 " clip-rule="nonzero"/></clipPath></defs><path fill="#ffffff" d="M 621.734375 129.167969 L 621.734375 145.15625 C 621.734375 148.171875 621.898438 150.808594 621.84375 150.808594 L 621.789062 150.808594 C 621.734375 150.808594 620.925781 149.675781 618.988281 147.09375 L 605.582031 129.222656 L 604.34375 129.222656 L 604.34375 152.960938 L 605.636719 152.960938 L 605.636719 136.867188 C 605.636719 133.796875 605.527344 131.214844 605.582031 131.214844 L 605.636719 131.214844 C 605.691406 131.214844 606.28125 132.183594 608.328125 134.929688 L 621.84375 152.960938 L 623.082031 152.960938 L 623.082031 129.222656 L 621.734375 129.222656 Z M 597.613281 148.601562 C 597.613281 148.65625 597.558594 149.625 597.558594 153.015625 L 598.796875 153.015625 L 598.796875 141.28125 L 589.753906 141.28125 L 589.753906 142.410156 L 597.558594 142.410156 L 597.558594 146.824219 C 596.535156 148.976562 592.714844 152.152344 587.597656 152.152344 C 581.40625 152.152344 576.507812 147.578125 576.507812 141.066406 C 576.507812 134.441406 581.40625 129.976562 587.597656 129.976562 C 591.691406 129.976562 595.242188 131.96875 597.183594 135.25 L 598.527344 134.929688 C 596.484375 131.320312 592.714844 128.898438 587.652344 128.792969 C 580.761719 128.792969 575.214844 133.957031 575.214844 141.117188 C 575.214844 148.277344 580.761719 153.445312 587.652344 153.445312 C 593.414062 153.390625 596.589844 149.945312 597.613281 148.601562 Z M 570.3125 129.167969 L 569.023438 129.167969 L 569.023438 152.90625 L 570.3125 152.90625 Z M 563.636719 134.980469 C 562.992188 131.105469 559.707031 128.738281 555.453125 128.738281 C 550.824219 128.738281 547.429688 131.160156 547.429688 134.875 C 547.429688 138.964844 551.847656 139.988281 554.539062 140.742188 C 557.929688 141.65625 562.722656 142.464844 562.722656 146.769531 C 562.722656 149.945312 559.921875 152.261719 555.613281 152.261719 C 551.039062 152.261719 548.453125 149.460938 548.238281 146.230469 L 547 146.554688 C 547.324219 150.378906 550.390625 153.5 555.613281 153.5 C 560.730469 153.5 564.066406 150.644531 564.066406 146.824219 C 564.066406 141.925781 559.113281 140.742188 555.882812 139.878906 C 552.546875 139.019531 548.777344 138.050781 548.777344 134.980469 C 548.777344 131.859375 551.628906 130.082031 555.507812 130.082031 C 559.113281 130.082031 561.914062 132.128906 562.453125 135.464844 Z M 530.09375 151.667969 L 530.09375 140.6875 L 541.453125 140.6875 L 541.453125 139.449219 L 530.09375 139.449219 L 530.09375 130.40625 L 544.09375 130.40625 L 544.09375 129.167969 L 528.800781 129.167969 L 528.800781 152.90625 L 544.308594 152.90625 L 544.308594 151.667969 Z M 503.0625 151.667969 L 503.0625 130.460938 L 511.679688 130.460938 C 517.761719 130.460938 522.769531 134.660156 522.769531 141.226562 C 522.769531 147.738281 517.816406 151.722656 512 151.722656 L 503.0625 151.722656 Z M 501.769531 129.167969 L 501.769531 152.90625 L 511.945312 152.90625 C 518.570312 152.90625 524.0625 148.117188 524.0625 141.171875 C 524.0625 134.066406 518.515625 129.167969 511.679688 129.167969 Z M 484.972656 129.167969 L 484.972656 145.15625 C 484.972656 148.171875 485.132812 150.808594 485.078125 150.808594 L 485.023438 150.808594 C 484.972656 150.808594 484.164062 149.675781 482.226562 147.09375 L 468.765625 129.222656 L 467.527344 129.222656 L 467.527344 152.960938 L 468.816406 152.960938 L 468.816406 136.867188 C 468.816406 133.796875 468.710938 131.214844 468.765625 131.214844 L 468.816406 131.214844 C 468.871094 131.214844 469.464844 132.183594 471.511719 134.929688 L 485.023438 152.960938 L 486.261719 152.960938 L 486.261719 129.222656 L 484.972656 129.222656 Z M 439.203125 141.066406 C 439.203125 134.390625 444.105469 129.976562 450.296875 129.976562 C 456.433594 129.976562 461.441406 134.445312 461.441406 141.066406 C 461.441406 147.632812 456.488281 152.152344 450.296875 152.152344 C 444.105469 152.152344 439.203125 147.632812 439.203125 141.066406 M 437.910156 141.066406 C 437.910156 148.222656 443.457031 153.390625 450.347656 153.390625 C 457.242188 153.390625 462.839844 148.222656 462.839844 141.066406 C 462.839844 133.90625 457.242188 128.738281 450.347656 128.738281 C 443.457031 128.738281 437.910156 133.90625 437.910156 141.066406 M 432.957031 129.167969 L 431.664062 129.167969 L 431.664062 152.90625 L 432.957031 152.90625 Z M 409.160156 129.167969 L 409.160156 130.40625 L 417.558594 130.40625 L 417.558594 152.90625 L 418.90625 152.90625 L 418.90625 130.40625 L 427.304688 130.40625 L 427.304688 129.167969 Z M 404.691406 129.167969 L 403.398438 129.167969 L 403.398438 152.90625 L 404.691406 152.90625 Z M 382.773438 151.777344 L 382.773438 140.527344 L 390.367188 140.527344 C 393.867188 140.527344 396.828125 142.894531 396.828125 146.125 C 396.828125 149.625 394.082031 151.777344 390.636719 151.777344 Z M 382.773438 139.394531 L 382.773438 130.40625 L 389.503906 130.40625 C 392.953125 130.40625 395.160156 132.128906 395.160156 134.875 C 395.160156 137.296875 392.953125 139.394531 389.503906 139.394531 Z M 381.484375 129.167969 L 381.484375 152.90625 L 390.636719 152.90625 C 395.214844 152.90625 398.226562 150.214844 398.226562 145.964844 C 398.226562 142.085938 394.40625 139.878906 392.089844 139.773438 L 392.089844 139.71875 C 394.191406 139.394531 396.558594 137.242188 396.558594 134.765625 C 396.558594 131.375 393.867188 129.113281 389.828125 129.113281 Z M 374.589844 129.167969 L 373.296875 129.167969 L 373.296875 152.90625 L 374.589844 152.90625 Z M 365.007812 129.167969 L 365.007812 139.828125 L 349.824219 139.828125 L 349.824219 129.222656 L 348.53125 129.222656 L 348.53125 152.960938 L 349.824219 152.960938 L 349.824219 141.117188 L 365.007812 141.117188 L 365.007812 152.960938 L 366.351562 152.960938 L 366.351562 129.222656 L 365.007812 129.222656 Z M 333.777344 141.386719 C 333.832031 141.386719 334.476562 142.410156 335.285156 143.433594 L 342.714844 152.90625 L 344.382812 152.90625 L 334.636719 140.472656 L 343.523438 129.113281 L 341.855469 129.113281 L 335.390625 137.402344 C 335.015625 137.941406 333.832031 139.609375 333.777344 139.609375 L 333.722656 139.609375 C 333.667969 139.609375 332.539062 137.886719 332.160156 137.402344 L 325.699219 129.113281 L 324.03125 129.113281 L 332.914062 140.472656 L 323.167969 152.90625 L 324.839844 152.90625 L 332.269531 143.433594 C 333.078125 142.464844 333.722656 141.386719 333.777344 141.386719 Z M 306.316406 151.667969 L 306.316406 140.6875 L 317.675781 140.6875 L 317.675781 139.449219 L 306.316406 139.449219 L 306.316406 130.40625 L 320.316406 130.40625 L 320.316406 129.167969 L 305.023438 129.167969 L 305.023438 152.90625 L 320.53125 152.90625 L 320.53125 151.667969 Z M 286.234375 144.347656 C 286.234375 149.140625 284.617188 152.207031 278.800781 152.207031 C 274.710938 152.207031 271.695312 149.945312 271.695312 146.554688 C 271.695312 142.839844 274.871094 141.226562 278.800781 141.226562 L 286.234375 141.226562 Z M 292.046875 139.988281 L 278.800781 139.988281 C 274.546875 139.988281 272.339844 137.835938 272.339844 135.144531 C 272.339844 133.257812 273.523438 129.867188 278.425781 129.867188 C 282.300781 129.867188 284.5625 131.914062 285.371094 135.898438 L 286.609375 135.574219 C 285.855469 131 282.515625 128.738281 278.425781 128.738281 C 272.664062 128.738281 270.996094 132.503906 270.996094 135.195312 C 270.996094 138.589844 273.632812 140.257812 275.785156 140.578125 L 275.785156 140.632812 C 272.933594 140.957031 270.347656 142.894531 270.347656 146.554688 C 270.347656 150.699219 273.792969 153.5 278.800781 153.5 C 285.15625 153.5 287.523438 150.160156 287.523438 144.457031 L 287.523438 141.28125 L 292.101562 141.28125 Z M 241.058594 129.167969 L 241.058594 130.40625 L 249.457031 130.40625 L 249.457031 152.90625 L 250.804688 152.90625 L 250.804688 130.40625 L 259.203125 130.40625 L 259.203125 129.167969 Z M 238.902344 134.875 C 236.75 131.105469 232.710938 128.738281 228.027344 128.738281 C 221.136719 128.738281 215.589844 133.90625 215.589844 141.066406 C 215.589844 148.222656 221.136719 153.390625 228.027344 153.390625 C 233.035156 153.390625 237.234375 150.753906 239.28125 146.554688 L 237.988281 146.179688 C 236.15625 149.785156 232.386719 152.101562 228.027344 152.101562 C 221.835938 152.101562 216.933594 147.578125 216.933594 141.066406 C 216.933594 134.390625 221.835938 129.976562 228.027344 129.976562 C 232.121094 129.976562 235.671875 131.96875 237.613281 135.25 Z M 209.933594 129.167969 L 209.933594 143.59375 C 209.933594 149.246094 207.1875 152.207031 201.804688 152.207031 C 196.421875 152.207031 193.621094 149.246094 193.621094 143.59375 L 193.621094 129.222656 L 192.328125 129.222656 L 192.328125 143.433594 C 192.328125 149.945312 195.558594 153.445312 201.804688 153.445312 C 207.996094 153.445312 211.28125 149.945312 211.28125 143.433594 L 211.28125 129.222656 L 209.933594 129.222656 Z M 166.914062 151.667969 L 166.914062 130.460938 L 175.527344 130.460938 C 181.613281 130.460938 186.621094 134.660156 186.621094 141.226562 C 186.621094 147.738281 181.667969 151.722656 175.851562 151.722656 L 166.914062 151.722656 Z M 165.621094 129.167969 L 165.621094 152.90625 L 175.796875 152.90625 C 182.421875 152.90625 187.914062 148.117188 187.914062 141.171875 C 187.914062 134.066406 182.367188 129.167969 175.527344 129.167969 Z M 137.300781 141.066406 C 137.300781 134.390625 142.199219 129.976562 148.390625 129.976562 C 154.53125 129.976562 159.539062 134.445312 159.539062 141.066406 C 159.539062 147.632812 154.582031 152.152344 148.390625 152.152344 C 142.199219 152.152344 137.300781 147.632812 137.300781 141.066406 M 135.953125 141.066406 C 135.953125 148.222656 141.5 153.390625 148.390625 153.390625 C 155.285156 153.390625 160.882812 148.222656 160.882812 141.066406 C 160.882812 133.90625 155.285156 128.738281 148.390625 128.738281 C 141.5 128.738281 135.953125 133.90625 135.953125 141.066406 M 118.667969 142.355469 L 118.667969 130.460938 L 123.785156 130.460938 C 128.308594 130.460938 131.109375 132.503906 131.109375 136.382812 C 131.109375 139.988281 128.523438 142.355469 123.785156 142.355469 Z M 133.261719 152.960938 L 127.125 143.164062 C 130.570312 142.300781 132.507812 139.878906 132.507812 136.433594 C 132.507812 131.96875 129.222656 129.222656 123.839844 129.222656 L 117.378906 129.222656 L 117.378906 152.960938 L 118.667969 152.960938 L 118.667969 143.539062 L 123.785156 143.539062 C 124.484375 143.539062 125.132812 143.488281 125.722656 143.378906 L 131.644531 152.960938 Z M 99.015625 142.570312 L 99.015625 130.460938 L 104.132812 130.460938 C 108.65625 130.460938 111.453125 132.558594 111.453125 136.488281 C 111.453125 140.203125 108.871094 142.570312 104.132812 142.570312 Z M 97.671875 129.167969 L 97.671875 152.90625 L 98.960938 152.90625 L 98.960938 143.757812 L 104.078125 143.757812 C 109.515625 143.757812 112.746094 141.011719 112.746094 136.433594 C 112.746094 131.859375 109.460938 129.113281 104.078125 129.113281 Z M 97.671875 129.167969 " fill-opacity="1" fill-rule="nonzero"/><path fill="#add034" d="M 160.023438 56.335938 L 164.222656 56.335938 L 164.222656 108.121094 L 160.023438 108.121094 Z M 160.023438 56.335938 " fill-opacity="1" fill-rule="nonzero"/><g clip-path="url(#e0c0c44646)"><path fill="#add034" d="M 146.5625 82.171875 C 146.5625 96.4375 136.546875 105.050781 124.160156 105.050781 C 111.667969 105.050781 101.761719 96.386719 101.761719 82.171875 C 101.761719 68.015625 111.667969 59.402344 124.160156 59.402344 C 136.546875 59.402344 146.5625 67.960938 146.5625 82.171875 M 150.816406 82.171875 C 150.816406 65.972656 138.96875 55.3125 124.109375 55.3125 C 114.523438 55.3125 106.339844 59.726562 101.601562 67.101562 L 101.601562 56.335938 L 97.402344 56.335938 L 97.402344 82.066406 C 97.402344 82.066406 97.402344 82.121094 97.402344 82.121094 C 97.402344 98.324219 109.140625 108.980469 124.109375 108.980469 C 138.96875 108.980469 150.816406 98.375 150.816406 82.171875 " fill-opacity="1" fill-rule="nonzero"/></g><g clip-path="url(#bd22bf8b85)"><path fill="#add034" d="M 224.257812 108.121094 L 224.257812 81.851562 L 204.175781 81.851562 L 204.175781 85.835938 L 220.328125 85.835938 L 220.328125 94.609375 C 218.121094 98.914062 210.636719 105.050781 200.136719 105.050781 C 187.535156 105.050781 177.738281 96.332031 177.738281 82.121094 C 177.738281 68.070312 187.105469 59.402344 200.136719 59.402344 C 212.574219 59.402344 217.796875 67.261719 219.359375 70.4375 L 223.503906 69.253906 C 220.273438 61.773438 212.035156 55.367188 200.136719 55.367188 C 185.058594 55.367188 173.429688 65.703125 173.429688 82.226562 C 173.429688 98.484375 185.167969 109.035156 199.921875 109.035156 C 211.390625 109.035156 217.957031 102.683594 220.433594 99.5625 L 220.488281 99.5625 C 220.488281 100.261719 220.433594 101.390625 220.433594 108.121094 Z M 224.257812 108.121094 " fill-opacity="1" fill-rule="nonzero"/></g><g clip-path="url(#f618ea3c83)"><path fill="#ffffff" d="M 285.425781 82.171875 C 285.425781 65.972656 273.578125 55.3125 258.71875 55.3125 C 243.75 55.3125 232.011719 65.972656 232.011719 82.171875 C 232.011719 98.375 243.75 109.035156 258.71875 109.035156 C 268.734375 109.035156 277.242188 104.191406 281.761719 96.117188 L 278.316406 93.855469 C 274.546875 101.015625 267.226562 105.105469 258.71875 105.105469 C 246.226562 105.105469 236.320312 96.4375 236.320312 82.226562 C 236.320312 68.070312 246.226562 59.457031 258.71875 59.457031 C 271.046875 59.457031 280.957031 67.910156 281.117188 81.90625 L 265.070312 81.90625 L 265.070312 85.886719 L 285.046875 85.886719 L 285.046875 85.726562 C 285.261719 84.488281 285.425781 83.359375 285.425781 82.171875 " fill-opacity="1" fill-rule="nonzero"/></g><g clip-path="url(#b291e8d9a9)"><path fill="#ffffff" d="M 390.367188 82.171875 C 390.367188 65.972656 378.519531 55.3125 363.660156 55.3125 C 348.691406 55.3125 336.953125 65.972656 336.953125 82.171875 C 336.953125 98.375 348.691406 109.035156 363.660156 109.035156 C 373.675781 109.035156 382.183594 104.191406 386.707031 96.117188 L 383.261719 93.855469 C 379.492188 101.015625 372.167969 105.105469 363.660156 105.105469 C 351.167969 105.105469 341.261719 96.4375 341.261719 82.226562 C 341.261719 68.070312 351.167969 59.457031 363.660156 59.457031 C 375.992188 59.457031 385.898438 67.910156 386.058594 81.90625 L 370.015625 81.90625 L 370.015625 85.886719 L 389.992188 85.886719 L 389.992188 85.726562 C 390.152344 84.488281 390.367188 83.359375 390.367188 82.171875 " fill-opacity="1" fill-rule="nonzero"/></g><path fill="#ffffff" d="M 313.53125 108.121094 L 334.691406 56.335938 L 330.117188 56.335938 L 318.648438 84.597656 C 314.175781 95.417969 311.324219 103.007812 311.214844 103.167969 L 311.054688 103.167969 C 311 103.007812 308.09375 95.253906 303.570312 84.21875 L 292.15625 56.335938 L 287.472656 56.335938 L 308.632812 108.121094 Z M 313.53125 108.121094 " fill-opacity="1" fill-rule="nonzero"/><path fill="#ffffff" d="M 436.1875 108.121094 L 440.496094 108.121094 L 440.496094 56.335938 L 436.296875 56.335938 L 436.296875 89.117188 C 436.296875 95.253906 436.457031 101.121094 436.457031 101.175781 L 436.402344 101.175781 L 403.773438 56.335938 L 399.46875 56.335938 L 399.46875 108.121094 L 403.667969 108.121094 L 403.667969 75.230469 C 403.667969 68.878906 403.453125 63.011719 403.453125 62.957031 L 403.613281 62.957031 Z M 436.1875 108.121094 " fill-opacity="1" fill-rule="nonzero"/><path fill="#ffffff" d="M 449.433594 56.335938 L 449.433594 60.320312 L 467.796875 60.320312 L 467.796875 108.121094 L 472.046875 108.121094 L 472.046875 60.320312 L 490.410156 60.320312 L 490.410156 56.335938 Z M 449.433594 56.335938 " fill-opacity="1" fill-rule="nonzero"/></svg>